<svg width="32" height="33" viewBox="0 0 32 33" fill="none" xmlns="http://www.w3.org/2000/svg">
<g id="Outlined/Name">
<path id="Union" fill-rule="evenodd" clip-rule="evenodd" d="M19.605 21.8528C18.3742 22.9287 16.7632 23.5806 15 23.5806C13.2865 23.5806 11.7168 22.965 10.5 21.9428C10.5 21.9402 10.5 21.9376 10.5 21.935C10.5021 21.1809 10.6593 20.2315 11.2712 19.4773C11.8668 18.7431 12.9679 18.1036 15.0529 18.1036C17.1379 18.1036 18.239 18.7431 18.8346 19.4773C19.4245 20.2044 19.5918 21.1127 19.605 21.8528ZM20.5146 20.8926C20.3947 20.2231 20.1345 19.4915 19.6108 18.846C18.7778 17.8192 17.3547 17.1023 15.0529 17.1023C12.7511 17.1023 11.328 17.8192 10.495 18.846C9.94268 19.5268 9.68345 20.3034 9.57274 21.0019C8.58958 19.7965 8 18.2574 8 16.5806C8 12.7146 11.134 9.58063 15 9.58063C18.866 9.58063 22 12.7146 22 16.5806C22 18.2071 21.4453 19.7041 20.5146 20.8926ZM23 16.5806C23 20.9989 19.4183 24.5806 15 24.5806C10.5817 24.5806 7 20.9989 7 16.5806C7 12.1623 10.5817 8.58063 15 8.58063C19.4183 8.58063 23 12.1623 23 16.5806ZM12.0529 13.5977C12.0529 11.9386 13.3961 10.5937 15.0529 10.5937C16.7098 10.5937 18.0529 11.9386 18.0529 13.5977C18.0529 15.2567 16.7098 16.6016 15.0529 16.6016C13.3961 16.6016 12.0529 15.2567 12.0529 13.5977ZM15.0529 11.595C13.9483 11.595 13.0529 12.4916 13.0529 13.5977C13.0529 14.7037 13.9483 15.6003 15.0529 15.6003C16.1575 15.6003 17.0529 14.7037 17.0529 13.5977C17.0529 12.4916 16.1575 11.595 15.0529 11.595Z" fill="#919191"/>
</g>
</svg>
