<svg width="16" height="17" viewBox="0 0 16 17" fill="none" xmlns="http://www.w3.org/2000/svg">
<g id="Outlined/Password-Open">
<g id="Union">
<path d="M8.5 11.5423C8.7989 11.3692 9 11.0456 9 10.675C9 10.1219 8.55228 9.67365 8 9.67365C7.44772 9.67365 7 10.1219 7 10.675C7 11.0456 7.2011 11.3692 7.5 11.5423V12.6776C7.5 12.9541 7.72386 13.1782 8 13.1782C8.27614 13.1782 8.5 12.9541 8.5 12.6776V11.5423Z" fill="#919191"/>
<path fill-rule="evenodd" clip-rule="evenodd" d="M5 7.17037V5.16775C5 3.50872 6.34315 2.16382 8 2.16382C9.65685 2.16382 11 3.50872 11 5.16775V7.17037H12C13.1046 7.17037 14 8.06698 14 9.17299V13.1782C14 14.2843 13.1046 15.1809 12 15.1809H4C2.89543 15.1809 2 14.2843 2 13.1782V9.17299C2 8.06698 2.89543 7.17037 4 7.17037H5ZM6 5.16775C6 4.06173 6.89543 3.16513 8 3.16513C9.10457 3.16513 10 4.06173 10 5.16775V7.17037H6V5.16775ZM3 9.17299C3 8.61998 3.44772 8.17168 4 8.17168H12C12.5523 8.17168 13 8.61998 13 9.17299V13.1782C13 13.7312 12.5523 14.1795 12 14.1795H4C3.44772 14.1795 3 13.7312 3 13.1782V9.17299Z" fill="#919191"/>
</g>
</g>
</svg>
