<svg width="24" height="27" viewBox="0 0 24 27" fill="none" xmlns="http://www.w3.org/2000/svg">
<path id="Union" fill-rule="evenodd" clip-rule="evenodd" d="M10 0C4.47715 0 0 4.89405 0 10.9312C0 16.9683 4.47715 21.8623 10 21.8623C12.4013 21.8623 14.6049 20.9371 16.3287 19.3951L22.2929 25.9146C22.6834 26.3415 23.3166 26.3415 23.7071 25.9146C24.0976 25.4877 24.0976 24.7956 23.7071 24.3687L17.7429 17.8492C19.1536 15.9648 20 13.556 20 10.9312C20 4.89405 15.5228 0 10 0ZM2 10.9312C2 6.10147 5.58172 2.18623 10 2.18623C14.4183 2.18623 18 6.10147 18 10.9312C18 15.7608 14.4183 19.6761 10 19.6761C5.58172 19.6761 2 15.7608 2 10.9312Z" fill="#533300"/>
</svg>
